<svg xmlns="http://www.w3.org/2000/svg" xmlns:xlink="http://www.w3.org/1999/xlink" width="107" height="15.5" viewBox="0 0 107 15.5">
  <defs>
    <clipPath id="clip-path">
      <rect width="107" height="15.5" fill="none"/>
    </clipPath>
    <clipPath id="clip-path-2">
      <rect id="사각형_13" data-name="사각형 13" width="15" height="15.5" transform="translate(0 5145.586)" fill="#87a4d9"/>
    </clipPath>
  </defs>
  <g id="반복_그리드_3" data-name="반복 그리드 3" clip-path="url(#clip-path)">
    <g transform="translate(-975 -5500)">
      <g id="마스크_그룹_1" data-name="마스크 그룹 1" transform="translate(975 354.414)" clip-path="url(#clip-path-2)">
        <path id="star" d="M8.248,42.373,9.94,45.8a.807.807,0,0,0,.608.442l3.783.55a.808.808,0,0,1,.448,1.378l-2.737,2.668a.808.808,0,0,0-.232.715l.646,3.768a.808.808,0,0,1-1.172.852L7.9,54.394a.809.809,0,0,0-.752,0L3.765,56.173a.808.808,0,0,1-1.172-.852l.646-3.768a.808.808,0,0,0-.232-.715L.269,48.17a.808.808,0,0,1,.448-1.378l3.783-.55a.807.807,0,0,0,.608-.442L6.8,42.373A.807.807,0,0,1,8.248,42.373Z" transform="translate(-0.024 5104.241)" fill="#87a4d9"/>
      </g>
    </g>
    <g transform="translate(-952 -5500)">
      <g id="마스크_그룹_1-2" data-name="마스크 그룹 1" transform="translate(975 354.414)" clip-path="url(#clip-path-2)">
        <path id="star-2" data-name="star" d="M8.248,42.373,9.94,45.8a.807.807,0,0,0,.608.442l3.783.55a.808.808,0,0,1,.448,1.378l-2.737,2.668a.808.808,0,0,0-.232.715l.646,3.768a.808.808,0,0,1-1.172.852L7.9,54.394a.809.809,0,0,0-.752,0L3.765,56.173a.808.808,0,0,1-1.172-.852l.646-3.768a.808.808,0,0,0-.232-.715L.269,48.17a.808.808,0,0,1,.448-1.378l3.783-.55a.807.807,0,0,0,.608-.442L6.8,42.373A.807.807,0,0,1,8.248,42.373Z" transform="translate(-0.024 5104.241)" fill="#87a4d9"/>
      </g>
    </g>
    <g transform="translate(-929 -5500)">
      <g id="마스크_그룹_1-3" data-name="마스크 그룹 1" transform="translate(975 354.414)" clip-path="url(#clip-path-2)">
        <path id="star-3" data-name="star" d="M8.248,42.373,9.94,45.8a.807.807,0,0,0,.608.442l3.783.55a.808.808,0,0,1,.448,1.378l-2.737,2.668a.808.808,0,0,0-.232.715l.646,3.768a.808.808,0,0,1-1.172.852L7.9,54.394a.809.809,0,0,0-.752,0L3.765,56.173a.808.808,0,0,1-1.172-.852l.646-3.768a.808.808,0,0,0-.232-.715L.269,48.17a.808.808,0,0,1,.448-1.378l3.783-.55a.807.807,0,0,0,.608-.442L6.8,42.373A.807.807,0,0,1,8.248,42.373Z" transform="translate(-0.024 5104.241)" fill="#87a4d9"/>
      </g>
    </g>
    <g transform="translate(-906 -5500)">
      <g id="마스크_그룹_1-4" data-name="마스크 그룹 1" transform="translate(975 354.414)" clip-path="url(#clip-path-2)">
        <path id="star-4" data-name="star" d="M8.248,42.373,9.94,45.8a.807.807,0,0,0,.608.442l3.783.55a.808.808,0,0,1,.448,1.378l-2.737,2.668a.808.808,0,0,0-.232.715l.646,3.768a.808.808,0,0,1-1.172.852L7.9,54.394a.809.809,0,0,0-.752,0L3.765,56.173a.808.808,0,0,1-1.172-.852l.646-3.768a.808.808,0,0,0-.232-.715L.269,48.17a.808.808,0,0,1,.448-1.378l3.783-.55a.807.807,0,0,0,.608-.442L6.8,42.373A.807.807,0,0,1,8.248,42.373Z" transform="translate(-0.024 5104.241)" fill="#87a4d9"/>
      </g>
    </g>
    <g transform="translate(-883 -5500)">
      <g id="마스크_그룹_1-5" data-name="마스크 그룹 1" transform="translate(975 354.414)" clip-path="url(#clip-path-2)">
        <path id="star-5" data-name="star" d="M8.248,42.373,9.94,45.8a.807.807,0,0,0,.608.442l3.783.55a.808.808,0,0,1,.448,1.378l-2.737,2.668a.808.808,0,0,0-.232.715l.646,3.768a.808.808,0,0,1-1.172.852L7.9,54.394a.809.809,0,0,0-.752,0L3.765,56.173a.808.808,0,0,1-1.172-.852l.646-3.768a.808.808,0,0,0-.232-.715L.269,48.17a.808.808,0,0,1,.448-1.378l3.783-.55a.807.807,0,0,0,.608-.442L6.8,42.373A.807.807,0,0,1,8.248,42.373Z" transform="translate(-0.024 5104.241)" fill="#87a4d9"/>
      </g>
    </g>
  </g>
</svg>
